# Blender 3.6.0
# www.blender.org
mtllib Sky.mtl
o Cube
v -86.857445 -86.857445 86.857445
v -86.857445 86.857445 86.857445
v -86.857445 -86.857445 -86.857445
v -86.857445 86.857445 -86.857445
v 86.857445 -86.857445 86.857445
v 86.857445 86.857445 86.857445
v 86.857445 -86.857445 -86.857445
v 86.857445 86.857445 -86.857445
vn 1.0000 -0.0000 -0.0000
vn -0.0000 -0.0000 1.0000
vn -1.0000 -0.0000 -0.0000
vn -0.0000 -0.0000 -1.0000
vn -0.0000 1.0000 -0.0000
vn -0.0000 -1.0000 -0.0000
vt 0.249763 0.333019
vt 0.000199 0.664520
vt 0.000000 0.333333
vt 0.502298 0.334173
vt 0.250969 0.664520
vt 0.751584 0.334391
vt 0.500008 0.664558
vt 0.998853 0.335230
vt 0.749401 0.665112
vt 0.748632 0.001692
vt 0.499427 0.004531
vt 0.499834 0.999689
vt 0.999526 0.665523
vt 0.749594 0.998942
s 0
usemtl Material.005
f 3/1/1 2/2/1 1/3/1
f 7/4/2 4/5/2 3/1/2
f 5/6/3 8/7/3 7/4/3
f 1/8/4 6/9/4 5/6/4
f 1/10/5 7/4/5 3/11/5
f 6/9/6 4/12/6 8/7/6
f 3/1/1 4/5/1 2/2/1
f 7/4/2 8/7/2 4/5/2
f 5/6/3 6/9/3 8/7/3
f 1/8/4 2/13/4 6/9/4
f 1/10/5 5/6/5 7/4/5
f 6/9/6 2/14/6 4/12/6
