# Blender 3.4.1
# www.blender.org
mtllib Test.mtl
o Torus
v 1.250000 0.000000 0.000000
v 1.216506 0.125000 0.000000
v 1.125000 0.216506 0.000000
v 1.000000 0.250000 0.000000
v 0.875000 0.216506 0.000000
v 0.783494 0.125000 0.000000
v 0.750000 0.000000 0.000000
v 0.783494 -0.125000 0.000000
v 0.875000 -0.216506 0.000000
v 1.000000 -0.250000 0.000000
v 1.125000 -0.216506 0.000000
v 1.216506 -0.125000 0.000000
v 1.011271 0.000000 -0.734732
v 0.984174 0.125000 -0.715044
v 0.910144 0.216506 -0.661258
v 0.809017 0.250000 -0.587785
v 0.707890 0.216506 -0.514312
v 0.633860 0.125000 -0.460526
v 0.606763 0.000000 -0.440839
v 0.633860 -0.125000 -0.460526
v 0.707890 -0.216506 -0.514312
v 0.809017 -0.250000 -0.587785
v 0.910144 -0.216506 -0.661258
v 0.984174 -0.125000 -0.715044
v 0.386271 0.000000 -1.188821
v 0.375921 0.125000 -1.156966
v 0.347644 0.216506 -1.069939
v 0.309017 0.250000 -0.951056
v 0.270390 0.216506 -0.832174
v 0.242113 0.125000 -0.745147
v 0.231763 0.000000 -0.713292
v 0.242113 -0.125000 -0.745147
v 0.270390 -0.216506 -0.832174
v 0.309017 -0.250000 -0.951056
v 0.347644 -0.216506 -1.069939
v 0.375921 -0.125000 -1.156966
v -0.386271 0.000000 -1.188821
v -0.375921 0.125000 -1.156966
v -0.347644 0.216506 -1.069939
v -0.309017 0.250000 -0.951056
v -0.270390 0.216506 -0.832174
v -0.242113 0.125000 -0.745147
v -0.231763 0.000000 -0.713292
v -0.242113 -0.125000 -0.745147
v -0.270390 -0.216506 -0.832174
v -0.309017 -0.250000 -0.951056
v -0.347644 -0.216506 -1.069939
v -0.375921 -0.125000 -1.156966
v -1.011271 0.000000 -0.734731
v -0.984175 0.125000 -0.715044
v -0.910144 0.216506 -0.661258
v -0.809017 0.250000 -0.587785
v -0.707890 0.216506 -0.514312
v -0.633860 0.125000 -0.460526
v -0.606763 0.000000 -0.440839
v -0.633860 -0.125000 -0.460526
v -0.707890 -0.216506 -0.514312
v -0.809017 -0.250000 -0.587785
v -0.910144 -0.216506 -0.661258
v -0.984175 -0.125000 -0.715044
v -1.250000 0.000000 -0.000000
v -1.216506 0.125000 -0.000000
v -1.125000 0.216506 -0.000000
v -1.000000 0.250000 -0.000000
v -0.875000 0.216506 -0.000000
v -0.783494 0.125000 -0.000000
v -0.750000 0.000000 -0.000000
v -0.783494 -0.125000 -0.000000
v -0.875000 -0.216506 -0.000000
v -1.000000 -0.250000 -0.000000
v -1.125000 -0.216506 -0.000000
v -1.216506 -0.125000 -0.000000
v -1.011271 0.000000 0.734731
v -0.984175 0.125000 0.715044
v -0.910144 0.216506 0.661258
v -0.809017 0.250000 0.587785
v -0.707890 0.216506 0.514312
v -0.633860 0.125000 0.460526
v -0.606763 0.000000 0.440839
v -0.633860 -0.125000 0.460526
v -0.707890 -0.216506 0.514312
v -0.809017 -0.250000 0.587785
v -0.910144 -0.216506 0.661258
v -0.984175 -0.125000 0.715044
v -0.386271 0.000000 1.188821
v -0.375921 0.125000 1.156966
v -0.347644 0.216506 1.069939
v -0.309017 0.250000 0.951056
v -0.270390 0.216506 0.832174
v -0.242113 0.125000 0.745147
v -0.231763 0.000000 0.713292
v -0.242113 -0.125000 0.745147
v -0.270390 -0.216506 0.832174
v -0.309017 -0.250000 0.951056
v -0.347644 -0.216506 1.069939
v -0.375921 -0.125000 1.156966
v 0.386271 0.000000 1.188821
v 0.375921 0.125000 1.156966
v 0.347644 0.216506 1.069939
v 0.309017 0.250000 0.951056
v 0.270390 0.216506 0.832174
v 0.242113 0.125000 0.745147
v 0.231763 0.000000 0.713292
v 0.242113 -0.125000 0.745147
v 0.270390 -0.216506 0.832174
v 0.309017 -0.250000 0.951056
v 0.347644 -0.216506 1.069939
v 0.375921 -0.125000 1.156966
v 1.011271 0.000000 0.734732
v 0.984174 0.125000 0.715045
v 0.910144 0.216506 0.661259
v 0.809017 0.250000 0.587786
v 0.707890 0.216506 0.514312
v 0.633859 0.125000 0.460526
v 0.606763 0.000000 0.440839
v 0.633859 -0.125000 0.460526
v 0.707890 -0.216506 0.514312
v 0.809017 -0.250000 0.587786
v 0.910144 -0.216506 0.661259
v 0.984174 -0.125000 0.715045
vn 0.9216 0.2469 -0.2994
vn 0.6892 0.6892 -0.2239
vn 0.2579 0.9625 -0.0838
vn -0.2579 0.9625 0.0838
vn -0.6892 0.6892 0.2239
vn -0.9216 0.2469 0.2994
vn -0.9216 -0.2469 0.2994
vn -0.6892 -0.6892 0.2239
vn -0.2579 -0.9625 0.0838
vn 0.2579 -0.9625 -0.0838
vn 0.6892 -0.6892 -0.2239
vn 0.9216 -0.2469 -0.2994
vn 0.5696 0.2469 -0.7840
vn 0.4259 0.6892 -0.5862
vn 0.1594 0.9625 -0.2194
vn -0.1594 0.9625 0.2194
vn -0.4259 0.6892 0.5862
vn -0.5696 0.2469 0.7840
vn -0.5696 -0.2469 0.7840
vn -0.4259 -0.6892 0.5862
vn -0.1594 -0.9625 0.2194
vn 0.1594 -0.9625 -0.2194
vn 0.4259 -0.6892 -0.5862
vn 0.5696 -0.2469 -0.7840
vn -0.0000 0.2469 -0.9690
vn -0.0000 0.6892 -0.7246
vn -0.0000 0.9625 -0.2712
vn -0.0000 0.9625 0.2712
vn -0.0000 0.6892 0.7246
vn -0.0000 0.2469 0.9690
vn -0.0000 -0.2469 0.9690
vn -0.0000 -0.6892 0.7246
vn -0.0000 -0.9625 0.2712
vn -0.0000 -0.9625 -0.2712
vn -0.0000 -0.6892 -0.7246
vn -0.0000 -0.2469 -0.9690
vn -0.5696 0.2469 -0.7840
vn -0.4259 0.6892 -0.5862
vn -0.1594 0.9625 -0.2194
vn 0.1594 0.9625 0.2194
vn 0.4259 0.6892 0.5862
vn 0.5696 0.2469 0.7840
vn 0.5696 -0.2469 0.7840
vn 0.4259 -0.6892 0.5862
vn 0.1594 -0.9625 0.2194
vn -0.1594 -0.9625 -0.2194
vn -0.4259 -0.6892 -0.5862
vn -0.5696 -0.2469 -0.7840
vn -0.9216 0.2469 -0.2994
vn -0.6892 0.6892 -0.2239
vn -0.2579 0.9625 -0.0838
vn 0.2579 0.9625 0.0838
vn 0.6892 0.6892 0.2239
vn 0.9216 0.2469 0.2994
vn 0.9216 -0.2469 0.2994
vn 0.6892 -0.6892 0.2239
vn 0.2579 -0.9625 0.0838
vn -0.2579 -0.9625 -0.0838
vn -0.6892 -0.6892 -0.2239
vn -0.9216 -0.2469 -0.2994
vt 0.600000 0.500000
vt 0.600000 0.583333
vt 0.600000 0.666667
vt 0.600000 0.750000
vt 0.600000 0.833333
vt 0.600000 0.916667
vt 0.600000 1.000000
vt 0.600000 0.000000
vt 0.600000 0.083333
vt 0.600000 0.166667
vt 0.600000 0.250000
vt 0.600000 0.333333
vt 0.600000 0.416667
vt 0.700000 0.500000
vt 0.700000 0.583333
vt 0.700000 0.666667
vt 0.700000 0.750000
vt 0.700000 0.833333
vt 0.700000 0.916667
vt 0.700000 0.000000
vt 0.700000 1.000000
vt 0.700000 0.083333
vt 0.700000 0.166667
vt 0.700000 0.250000
vt 0.700000 0.333333
vt 0.700000 0.416667
vt 0.800000 0.500000
vt 0.800000 0.583333
vt 0.800000 0.666667
vt 0.800000 0.750000
vt 0.800000 0.833333
vt 0.800000 0.916667
vt 0.800000 0.000000
vt 0.800000 1.000000
vt 0.800000 0.083333
vt 0.800000 0.166667
vt 0.800000 0.250000
vt 0.800000 0.333333
vt 0.800000 0.416667
vt 0.900000 0.500000
vt 0.900000 0.583333
vt 0.900000 0.666667
vt 0.900000 0.750000
vt 0.900000 0.833333
vt 0.900000 0.916667
vt 0.900000 1.000000
vt 0.900000 0.000000
vt 0.900000 0.083333
vt 0.900000 0.166667
vt 0.900000 0.250000
vt 0.900000 0.333333
vt 0.900000 0.416667
vt 1.000000 0.500000
vt -0.000000 0.500000
vt -0.000000 0.583333
vt 1.000000 0.583333
vt 1.000000 0.666667
vt -0.000000 0.666667
vt -0.000000 0.750000
vt 1.000000 0.750000
vt 1.000000 0.833333
vt -0.000000 0.833333
vt 1.000000 0.916667
vt -0.000000 0.916667
vt -0.000000 1.000000
vt -0.000000 0.000000
vt 1.000000 1.000000
vt 1.000000 0.000000
vt 1.000000 0.083333
vt -0.000000 0.083333
vt 1.000000 0.166667
vt -0.000000 0.166667
vt 1.000000 0.250000
vt -0.000000 0.250000
vt 1.000000 0.333333
vt -0.000000 0.333333
vt 1.000000 0.416667
vt -0.000000 0.416667
vt 0.100000 0.500000
vt 0.100000 0.583333
vt 0.100000 0.666667
vt 0.100000 0.750000
vt 0.100000 0.833333
vt 0.100000 0.916667
vt 0.100000 0.000000
vt 0.100000 1.000000
vt 0.100000 0.083333
vt 0.100000 0.166667
vt 0.100000 0.250000
vt 0.100000 0.333333
vt 0.100000 0.416667
vt 0.200000 0.500000
vt 0.200000 0.583333
vt 0.200000 0.666667
vt 0.200000 0.750000
vt 0.200000 0.833333
vt 0.200000 0.916667
vt 0.200000 0.000000
vt 0.200000 1.000000
vt 0.200000 0.083333
vt 0.200000 0.166667
vt 0.200000 0.250000
vt 0.200000 0.333333
vt 0.200000 0.416667
vt 0.300000 0.500000
vt 0.300000 0.583333
vt 0.300000 0.666667
vt 0.300000 0.750000
vt 0.300000 0.833333
vt 0.300000 0.916667
vt 0.300000 0.000000
vt 0.300000 1.000000
vt 0.300000 0.083333
vt 0.300000 0.166667
vt 0.300000 0.250000
vt 0.300000 0.333333
vt 0.300000 0.416667
vt 0.400000 0.500000
vt 0.400000 0.583333
vt 0.400000 0.666667
vt 0.400000 0.750000
vt 0.400000 0.833333
vt 0.400000 0.916667
vt 0.400000 1.000000
vt 0.400000 0.000000
vt 0.400000 0.083333
vt 0.400000 0.166667
vt 0.400000 0.250000
vt 0.400000 0.333333
vt 0.400000 0.416667
vt 0.500000 0.500000
vt 0.500000 0.583333
vt 0.500000 0.666667
vt 0.500000 0.750000
vt 0.500000 0.833333
vt 0.500000 0.916667
vt 0.500000 1.000000
vt 0.500000 0.000000
vt 0.500000 0.083333
vt 0.500000 0.166667
vt 0.500000 0.250000
vt 0.500000 0.333333
vt 0.500000 0.416667
s 0
f 13/14/1 2/2/1 1/1/1
f 14/15/2 3/3/2 2/2/2
f 3/3/3 16/17/3 4/4/3
f 16/17/4 5/5/4 4/4/4
f 17/18/5 6/6/5 5/5/5
f 18/19/6 7/7/6 6/6/6
f 19/20/7 8/9/7 7/8/7
f 20/22/8 9/10/8 8/9/8
f 9/10/9 22/24/9 10/11/9
f 10/11/10 23/25/10 11/12/10
f 23/25/11 12/13/11 11/12/11
f 24/26/12 1/1/12 12/13/12
f 25/27/13 14/15/13 13/14/13
f 14/15/14 27/29/14 15/16/14
f 27/29/15 16/17/15 15/16/15
f 28/30/16 17/18/16 16/17/16
f 29/31/17 18/19/17 17/18/17
f 30/32/18 19/21/18 18/19/18
f 31/33/19 20/22/19 19/20/19
f 32/35/20 21/23/20 20/22/20
f 33/36/21 22/24/21 21/23/21
f 34/37/22 23/25/22 22/24/22
f 35/38/23 24/26/23 23/25/23
f 24/26/24 25/27/24 13/14/24
f 37/40/25 26/28/25 25/27/25
f 38/41/26 27/29/26 26/28/26
f 39/42/27 28/30/27 27/29/27
f 40/43/28 29/31/28 28/30/28
f 41/44/29 30/32/29 29/31/29
f 42/45/30 31/34/30 30/32/30
f 43/47/31 32/35/31 31/33/31
f 44/48/32 33/36/32 32/35/32
f 45/49/33 34/37/33 33/36/33
f 34/37/34 47/51/34 35/38/34
f 47/51/35 36/39/35 35/38/35
f 48/52/36 25/27/36 36/39/36
f 49/53/37 38/41/37 37/40/37
f 50/56/38 39/42/38 38/41/38
f 51/57/39 40/43/39 39/42/39
f 52/60/40 41/44/40 40/43/40
f 41/44/41 54/63/41 42/45/41
f 42/45/42 55/67/42 43/46/42
f 55/68/43 44/48/43 43/47/43
f 56/69/44 45/49/44 44/48/44
f 57/71/45 46/50/45 45/49/45
f 58/73/46 47/51/46 46/50/46
f 47/51/47 60/77/47 48/52/47
f 60/77/48 37/40/48 48/52/48
f 49/54/49 62/80/49 50/55/49
f 62/80/50 51/58/50 50/55/50
f 51/58/51 64/82/51 52/59/51
f 64/82/52 53/62/52 52/59/52
f 65/83/53 54/64/53 53/62/53
f 54/64/54 67/86/54 55/65/54
f 67/85/55 56/70/55 55/66/55
f 68/87/56 57/72/56 56/70/56
f 69/88/57 58/74/57 57/72/57
f 70/89/58 59/76/58 58/74/58
f 59/76/59 72/91/59 60/78/59
f 60/78/60 61/79/60 49/54/60
f 73/92/6 62/80/6 61/79/6
f 74/93/5 63/81/5 62/80/5
f 75/94/4 64/82/4 63/81/4
f 76/95/3 65/83/3 64/82/3
f 65/83/2 78/97/2 66/84/2
f 78/97/1 67/86/1 66/84/1
f 79/98/12 68/87/12 67/85/12
f 80/100/11 69/88/11 68/87/11
f 81/101/10 70/89/10 69/88/10
f 82/102/9 71/90/9 70/89/9
f 83/103/8 72/91/8 71/90/8
f 72/91/7 73/92/7 61/79/7
f 85/105/18 74/93/18 73/92/18
f 86/106/17 75/94/17 74/93/17
f 87/107/16 76/95/16 75/94/16
f 88/108/15 77/96/15 76/95/15
f 77/96/14 90/110/14 78/97/14
f 90/110/13 79/99/13 78/97/13
f 91/111/24 80/100/24 79/98/24
f 80/100/23 93/114/23 81/101/23
f 93/114/22 82/102/22 81/101/22
f 94/115/21 83/103/21 82/102/21
f 95/116/20 84/104/20 83/103/20
f 96/117/19 73/92/19 84/104/19
f 97/118/30 86/106/30 85/105/30
f 98/119/29 87/107/29 86/106/29
f 99/120/28 88/108/28 87/107/28
f 100/121/27 89/109/27 88/108/27
f 101/122/26 90/110/26 89/109/26
f 102/123/25 91/112/25 90/110/25
f 103/125/36 92/113/36 91/111/36
f 104/126/35 93/114/35 92/113/35
f 105/127/34 94/115/34 93/114/34
f 106/128/33 95/116/33 94/115/33
f 107/129/32 96/117/32 95/116/32
f 108/130/31 85/105/31 96/117/31
f 109/131/42 98/119/42 97/118/42
f 98/119/41 111/133/41 99/120/41
f 111/133/40 100/121/40 99/120/40
f 112/134/39 101/122/39 100/121/39
f 113/135/38 102/123/38 101/122/38
f 102/123/37 115/137/37 103/124/37
f 115/138/48 104/126/48 103/125/48
f 104/126/47 117/140/47 105/127/47
f 105/127/46 118/141/46 106/128/46
f 106/128/45 119/142/45 107/129/45
f 119/142/44 108/130/44 107/129/44
f 120/143/43 97/118/43 108/130/43
f 1/1/54 110/132/54 109/131/54
f 110/132/53 3/3/53 111/133/53
f 3/3/52 112/134/52 111/133/52
f 112/134/51 5/5/51 113/135/51
f 113/135/50 6/6/50 114/136/50
f 6/6/49 115/137/49 114/136/49
f 115/138/60 8/9/60 116/139/60
f 8/9/59 117/140/59 116/139/59
f 9/10/58 118/141/58 117/140/58
f 118/141/57 11/12/57 119/142/57
f 11/12/56 120/143/56 119/142/56
f 120/143/55 1/1/55 109/131/55
f 13/14/1 14/15/1 2/2/1
f 14/15/2 15/16/2 3/3/2
f 3/3/3 15/16/3 16/17/3
f 16/17/4 17/18/4 5/5/4
f 17/18/5 18/19/5 6/6/5
f 18/19/6 19/21/6 7/7/6
f 19/20/7 20/22/7 8/9/7
f 20/22/8 21/23/8 9/10/8
f 9/10/9 21/23/9 22/24/9
f 10/11/10 22/24/10 23/25/10
f 23/25/11 24/26/11 12/13/11
f 24/26/12 13/14/12 1/1/12
f 25/27/13 26/28/13 14/15/13
f 14/15/14 26/28/14 27/29/14
f 27/29/15 28/30/15 16/17/15
f 28/30/16 29/31/16 17/18/16
f 29/31/17 30/32/17 18/19/17
f 30/32/18 31/34/18 19/21/18
f 31/33/19 32/35/19 20/22/19
f 32/35/20 33/36/20 21/23/20
f 33/36/21 34/37/21 22/24/21
f 34/37/22 35/38/22 23/25/22
f 35/38/23 36/39/23 24/26/23
f 24/26/24 36/39/24 25/27/24
f 37/40/25 38/41/25 26/28/25
f 38/41/26 39/42/26 27/29/26
f 39/42/27 40/43/27 28/30/27
f 40/43/28 41/44/28 29/31/28
f 41/44/29 42/45/29 30/32/29
f 42/45/30 43/46/30 31/34/30
f 43/47/31 44/48/31 32/35/31
f 44/48/32 45/49/32 33/36/32
f 45/49/33 46/50/33 34/37/33
f 34/37/34 46/50/34 47/51/34
f 47/51/35 48/52/35 36/39/35
f 48/52/36 37/40/36 25/27/36
f 49/53/37 50/56/37 38/41/37
f 50/56/38 51/57/38 39/42/38
f 51/57/39 52/60/39 40/43/39
f 52/60/40 53/61/40 41/44/40
f 41/44/41 53/61/41 54/63/41
f 42/45/42 54/63/42 55/67/42
f 55/68/43 56/69/43 44/48/43
f 56/69/44 57/71/44 45/49/44
f 57/71/45 58/73/45 46/50/45
f 58/73/46 59/75/46 47/51/46
f 47/51/47 59/75/47 60/77/47
f 60/77/48 49/53/48 37/40/48
f 49/54/49 61/79/49 62/80/49
f 62/80/50 63/81/50 51/58/50
f 51/58/51 63/81/51 64/82/51
f 64/82/52 65/83/52 53/62/52
f 65/83/53 66/84/53 54/64/53
f 54/64/54 66/84/54 67/86/54
f 67/85/55 68/87/55 56/70/55
f 68/87/56 69/88/56 57/72/56
f 69/88/57 70/89/57 58/74/57
f 70/89/58 71/90/58 59/76/58
f 59/76/59 71/90/59 72/91/59
f 60/78/60 72/91/60 61/79/60
f 73/92/6 74/93/6 62/80/6
f 74/93/5 75/94/5 63/81/5
f 75/94/4 76/95/4 64/82/4
f 76/95/3 77/96/3 65/83/3
f 65/83/2 77/96/2 78/97/2
f 78/97/1 79/99/1 67/86/1
f 79/98/12 80/100/12 68/87/12
f 80/100/11 81/101/11 69/88/11
f 81/101/10 82/102/10 70/89/10
f 82/102/9 83/103/9 71/90/9
f 83/103/8 84/104/8 72/91/8
f 72/91/7 84/104/7 73/92/7
f 85/105/18 86/106/18 74/93/18
f 86/106/17 87/107/17 75/94/17
f 87/107/16 88/108/16 76/95/16
f 88/108/15 89/109/15 77/96/15
f 77/96/14 89/109/14 90/110/14
f 90/110/13 91/112/13 79/99/13
f 91/111/24 92/113/24 80/100/24
f 80/100/23 92/113/23 93/114/23
f 93/114/22 94/115/22 82/102/22
f 94/115/21 95/116/21 83/103/21
f 95/116/20 96/117/20 84/104/20
f 96/117/19 85/105/19 73/92/19
f 97/118/30 98/119/30 86/106/30
f 98/119/29 99/120/29 87/107/29
f 99/120/28 100/121/28 88/108/28
f 100/121/27 101/122/27 89/109/27
f 101/122/26 102/123/26 90/110/26
f 102/123/25 103/124/25 91/112/25
f 103/125/36 104/126/36 92/113/36
f 104/126/35 105/127/35 93/114/35
f 105/127/34 106/128/34 94/115/34
f 106/128/33 107/129/33 95/116/33
f 107/129/32 108/130/32 96/117/32
f 108/130/31 97/118/31 85/105/31
f 109/131/42 110/132/42 98/119/42
f 98/119/41 110/132/41 111/133/41
f 111/133/40 112/134/40 100/121/40
f 112/134/39 113/135/39 101/122/39
f 113/135/38 114/136/38 102/123/38
f 102/123/37 114/136/37 115/137/37
f 115/138/48 116/139/48 104/126/48
f 104/126/47 116/139/47 117/140/47
f 105/127/46 117/140/46 118/141/46
f 106/128/45 118/141/45 119/142/45
f 119/142/44 120/143/44 108/130/44
f 120/143/43 109/131/43 97/118/43
f 1/1/54 2/2/54 110/132/54
f 110/132/53 2/2/53 3/3/53
f 3/3/52 4/4/52 112/134/52
f 112/134/51 4/4/51 5/5/51
f 113/135/50 5/5/50 6/6/50
f 6/6/49 7/7/49 115/137/49
f 115/138/60 7/8/60 8/9/60
f 8/9/59 9/10/59 117/140/59
f 9/10/58 10/11/58 118/141/58
f 118/141/57 10/11/57 11/12/57
f 11/12/56 12/13/56 120/143/56
f 120/143/55 12/13/55 1/1/55
